<svg xmlns="http://www.w3.org/2000/svg" viewBox="0 0 200 200">
  <defs>
    <linearGradient id="grad1" x1="0%" y1="0%" x2="100%" y2="100%">
      <stop offset="0%" style="stop-color:#8A2BE2;stop-opacity:1" />
      <stop offset="100%" style="stop-color:#6A1CB0;stop-opacity:1" />
    </linearGradient>
  </defs>
  <circle cx="100" cy="100" r="90" fill="url(#grad1)" />
  <circle cx="100" cy="100" r="80" fill="white" fill-opacity="0.1" />
  <circle cx="100" cy="100" r="70" fill="white" fill-opacity="0.1" />
  
  <!-- Clock face -->
  <circle cx="100" cy="100" r="65" fill="white" />
  
  <!-- Clock hands -->
  <line x1="100" y1="100" x2="100" y2="55" stroke="#333" stroke-width="4" stroke-linecap="round" />
  <line x1="100" y1="100" x2="130" y2="100" stroke="#333" stroke-width="4" stroke-linecap="round" />
  
  <!-- Clock center -->
  <circle cx="100" cy="100" r="5" fill="#333" />
  
  <!-- Person silhouette -->
  <path d="M100,185 C130,185 150,175 150,140 L150,130 C150,110 140,100 120,100 L80,100 C60,100 50,110 50,130 L50,140 C50,175 70,185 100,185 Z" fill="#8A2BE2" />
  <circle cx="100" cy="70" r="20" fill="#8A2BE2" />
  
  <!-- Fast-forward symbol -->
  <path d="M85,115 L105,125 L85,135 Z M105,115 L125,125 L105,135 Z" fill="white" />
</svg>
